<svg width="69" height="69" viewBox="0 0 69 69" fill="none" xmlns="http://www.w3.org/2000/svg">
<path d="M58.2188 12.9375C58.7906 12.9375 59.3391 13.1647 59.7435 13.5691C60.1478 13.9734 60.375 14.5219 60.375 15.0938V47.4375H8.625V15.0938C8.625 14.5219 8.85218 13.9734 9.25655 13.5691C9.66093 13.1647 10.2094 12.9375 10.7812 12.9375H58.2188ZM10.7812 8.625C9.06563 8.625 7.42028 9.30653 6.20715 10.5197C4.99403 11.7328 4.3125 13.3781 4.3125 15.0938V50.75C4.3125 51.3023 4.76022 51.75 5.3125 51.75H63.6875C64.2398 51.75 64.6875 51.3023 64.6875 50.75V15.0938C64.6875 13.3781 64.006 11.7328 62.7928 10.5197C61.5797 9.30653 59.9344 8.625 58.2188 8.625H10.7812ZM0.0771209 54.9023C-0.00791717 54.3566 0.447715 53.9062 1 53.9062H68C68.5523 53.9062 69.0079 54.3566 68.9229 54.9023C68.713 56.2491 68.0812 57.5045 67.1053 58.4803C65.8922 59.6935 64.2469 60.375 62.5312 60.375H6.46875C4.75313 60.375 3.10778 59.6935 1.89465 58.4803C0.918843 57.5045 0.286989 56.2491 0.0771209 54.9023Z" fill="black"/>
<path d="M37.4075 18H11.9191C11.4115 18 11 18.4115 11 18.9191V24.801C11 25.3086 11.4115 25.72 11.9191 25.72H37.4075C37.9151 25.72 38.3265 25.3086 38.3265 24.801V18.9191C38.3265 18.4115 37.9151 18 37.4075 18ZM36.4884 23.8819H12.8381V19.8381H36.4884V23.8819Z" fill="black"/>
<path d="M13 31C11.8972 31 11 31.8972 11 33C11 34.1028 11.8972 35 13 35C14.1028 35 15 34.1028 15 33C15 31.8972 14.1028 31 13 31ZM13 33.7234C12.6011 33.7234 12.2766 33.3989 12.2766 33C12.2766 32.6011 12.6011 32.2766 13 32.2766C13.3989 32.2766 13.7234 32.6011 13.7234 33C13.7234 33.3989 13.3989 33.7234 13 33.7234Z" fill="black"/>
<path d="M34.5 10C34.2243 10 34 10.2243 34 10.5C34 10.7757 34.2243 11 34.5 11C34.7757 11 35 10.7757 35 10.5C35 10.2243 34.7757 10 34.5 10ZM34.5 10.6808C34.4003 10.6808 34.3192 10.5997 34.3192 10.5C34.3192 10.4003 34.4003 10.3191 34.5 10.3191C34.5997 10.3191 34.6808 10.4003 34.6808 10.5C34.6808 10.5997 34.5997 10.6808 34.5 10.6808Z" fill="#E5E5E5"/>
<path d="M13 37C11.8972 37 11 37.8972 11 39C11 40.1028 11.8972 41 13 41C14.1028 41 15 40.1028 15 39C15 37.8972 14.1028 37 13 37ZM13 39.7234C12.6011 39.7234 12.2766 39.3989 12.2766 39C12.2766 38.6011 12.6011 38.2766 13 38.2766C13.3989 38.2766 13.7234 38.6011 13.7234 39C13.7234 39.3989 13.3989 39.7234 13 39.7234Z" fill="black"/>
<rect x="41" y="19" width="17" height="2" rx="1" fill="black"/>
<rect x="17" y="32" width="41" height="2" rx="1" fill="black"/>
<rect x="41" y="23" width="17" height="2" rx="1" fill="black"/>
<rect x="17" y="38" width="41" height="2" rx="1" fill="black"/>
</svg>
